<svg xmlns="http://www.w3.org/2000/svg" xmlns:xlink="http://www.w3.org/1999/xlink" id="svg5" version="1.1" viewBox="0 0 317.49999 317.50001" height="1200" width="1200">
  
    
  
  <defs id="defs2">
    <linearGradient id="linearGradient5776">
      <stop id="stop5772" offset="0" style="stop-color:#ffffff;stop-opacity:1;"></stop>
      <stop id="stop5774" offset="1" style="stop-color:#ffffff;stop-opacity:0;"></stop>
    </linearGradient>
    
    
    
    
    
    
    
    
    
    
    
    <linearGradient id="linearGradient3841">
      <stop id="stop3837" offset="0" style="stop-color:#f2f0ed;stop-opacity:1;"></stop>
      <stop id="stop3839" offset="1" style="stop-color:#574d3f;stop-opacity:0.07058824"></stop>
    </linearGradient>
    <linearGradient id="linearGradient2699">
      <stop id="stop2695" offset="0" style="stop-color:#f2edf0;stop-opacity:1"></stop>
      <stop id="stop2697" offset="1" style="stop-color:#574d3f;stop-opacity:0.07128713"></stop>
    </linearGradient>
    <linearGradient id="linearGradient2376">
      <stop id="stop2372" offset="0" style="stop-color:#ffffff;stop-opacity:0.84189725"></stop>
      <stop id="stop2374" offset="1" style="stop-color:#ffffff;stop-opacity:0;"></stop>
    </linearGradient>
    <linearGradient id="linearGradient1156">
      <stop id="stop1152" offset="0" style="stop-color:#ffffff;stop-opacity:0.74901181"></stop>
      <stop id="stop1154" offset="1" style="stop-color:#ffffff;stop-opacity:0;"></stop>
    </linearGradient>
    <linearGradient id="linearGradient43435">
      <stop id="stop43431" offset="0" style="stop-color:#ff983f;stop-opacity:1"></stop>
      <stop id="stop43433" offset="1" style="stop-color:#ffffff;stop-opacity:0;"></stop>
    </linearGradient>
    <linearGradient id="linearGradient39821">
      <stop id="stop39817" offset="0" style="stop-color:#f6c8cf;stop-opacity:1"></stop>
      <stop id="stop39819" offset="1" style="stop-color:#ff6b7d;stop-opacity:0.96078432"></stop>
    </linearGradient>
    
    
    
    <linearGradient id="linearGradient20891">
      <stop id="stop20887" offset="0" style="stop-color:#ff983f;stop-opacity:1"></stop>
      <stop id="stop20889" offset="1" style="stop-color:#ffffff;stop-opacity:0;"></stop>
    </linearGradient>
    
    
    
    
    
    <linearGradient id="linearGradient18838">
      <stop id="stop18834" offset="0" style="stop-color:#ff2a6d;stop-opacity:1;"></stop>
      <stop id="stop18836" offset="1" style="stop-color:#ff2a6d;stop-opacity:0;"></stop>
    </linearGradient>
    
    
    
    
    
    
    
    
    
    
    
    
    
    
    
    <filter height="1.3679572" width="1.3838903" y="-0.18397858" x="-0.19194514" id="filter15983" style="color-interpolation-filters:sRGB">
      <feGaussianBlur id="feGaussianBlur15981" result="blur" stdDeviation="2.232 1.27971"></feGaussianBlur>
    </filter>
    <filter height="1.7359143" width="1.7677805" y="-0.36795717" x="-0.38389027" id="filter16005" style="color-interpolation-filters:sRGB">
      <feGaussianBlur id="feGaussianBlur16003" result="fbSourceGraphic" stdDeviation="2.232 1.27971"></feGaussianBlur>
      <feColorMatrix id="feColorMatrix16025" values="0 0 0 -1 0 0 0 0 -1 0 0 0 0 -1 0 0 0 0 1 0" in="fbSourceGraphic" result="fbSourceGraphicAlpha"></feColorMatrix>
      <feGaussianBlur in="fbSourceGraphic" result="blur" stdDeviation="2.232 1.27971" id="feGaussianBlur16027"></feGaussianBlur>
    </filter>
    <linearGradient gradientTransform="matrix(3.2705346,0,0,3.4400581,-305.86081,-47.714178)" gradientUnits="userSpaceOnUse" y2="32.761543" x2="147.18874" y1="32.761543" x1="136.51691" id="linearGradient18840" xlink:href="#linearGradient18838"></linearGradient>
    
    
    <linearGradient gradientTransform="matrix(2.8039478,0,0,2.8039478,-241.40782,-31.294032)" gradientUnits="userSpaceOnUse" y2="76.729164" x2="145.52083" y1="71.4375" x1="150.8125" id="linearGradient20893" xlink:href="#linearGradient43435"></linearGradient>
    <linearGradient gradientTransform="matrix(2.5128061,-1.3460622e-8,0,2.6832636,-127.89404,-284.22386)" y2="79.375" x2="141.55208" y1="69.834579" x1="155.49294" gradientUnits="userSpaceOnUse" id="linearGradient21568" xlink:href="#linearGradient20891"></linearGradient>
    
    
    
    <linearGradient gradientTransform="matrix(2.8039478,0,0,2.8039478,-241.40782,-31.294032)" gradientUnits="userSpaceOnUse" y2="10.583333" x2="142.875" y1="42.333332" x1="150.8125" id="linearGradient39823" xlink:href="#linearGradient39821"></linearGradient>
    <linearGradient gradientTransform="matrix(2.6879224,0,0,2.475209,-225.93227,-272.61693)" gradientUnits="userSpaceOnUse" y2="64.118309" x2="134.54227" y1="47.851105" x1="135.0047" id="linearGradient1158" xlink:href="#linearGradient2376"></linearGradient>
    <linearGradient y2="64.118309" x2="134.54227" y1="50.245918" x1="135.13965" gradientTransform="matrix(2.6879224,0,0,2.475209,-161.63053,-274.91575)" gradientUnits="userSpaceOnUse" id="linearGradient1559" xlink:href="#linearGradient1156"></linearGradient>
    <linearGradient gradientTransform="matrix(3.071067,0,0,2.8039478,-274.71507,-31.294032)" gradientUnits="userSpaceOnUse" y2="40.229195" x2="130.53923" y1="48.656513" x1="130.37466" id="linearGradient2701" xlink:href="#linearGradient2699"></linearGradient>
    <linearGradient gradientTransform="matrix(3.0506013,0.02338192,-0.02037959,2.7644577,-276.47694,-34.044887)" gradientUnits="userSpaceOnUse" y2="43.941322" x2="153.45833" y1="48.29821" x1="153.50832" id="linearGradient3843" xlink:href="#linearGradient3841"></linearGradient>
    
    
    <filter height="1.4487274" width="1.1153862" y="-0.22436368" x="-0.057693123" id="filter3373" style="color-interpolation-filters:sRGB;">
      <feGaussianBlur id="feGaussianBlur3371" result="blur" stdDeviation="0.962286 0.98"></feGaussianBlur>
    </filter>
    <filter height="2.1968793" width="1.2516671" y="-0.59843963" x="-0.12583357" id="filter3498" style="color-interpolation-filters:sRGB;">
      <feGaussianBlur id="feGaussianBlur3496" result="blur" stdDeviation="0.96228606"></feGaussianBlur>
    </filter>
    <filter height="1.3438237" width="1.22939" y="-0.17191187" x="-0.11469502" id="filter3718" style="color-interpolation-filters:sRGB;">
      <feGaussianBlur id="feGaussianBlur3716" result="blur" stdDeviation="0.96228593"></feGaussianBlur>
    </filter>
    
    <filter id="filter8472" style="color-interpolation-filters:sRGB" x="-0.70912393" width="2.4182479" y="-0.14412131" height="1.2882426">
      <feGaussianBlur id="feGaussianBlur8454" in="SourceGraphic" result="result8" stdDeviation="5"></feGaussianBlur>
      <feComposite id="feComposite8456" operator="xor" in2="result8"></feComposite>
      <feComposite id="feComposite8458" in2="result8" result="result17" operator="arithmetic" k2="1"></feComposite>
      <feOffset id="feOffset8460" in="result17" result="result18"></feOffset>
      <feDisplacementMap id="feDisplacementMap8462" result="result4" scale="100" yChannelSelector="A" xChannelSelector="A" in="result18" in2="result17"></feDisplacementMap>
      <feComposite id="feComposite8464" k3="1" k1="1" in="result4" operator="arithmetic" result="fbSourceGraphic" in2="result4"></feComposite>
      <feComposite id="feComposite8466" operator="over" result="result9" in2="fbSourceGraphic"></feComposite>
      <feComposite id="feComposite8468" result="result15" operator="in" in2="SourceGraphic"></feComposite>
      <feComposite id="feComposite8470" in="result15" operator="in" in2="SourceGraphic" result="result16"></feComposite>
    </filter>
    <filter id="filter8472-1" style="color-interpolation-filters:sRGB" x="-0.70912393" width="2.4182479" y="-0.14412131" height="1.2882426">
      <feGaussianBlur id="feGaussianBlur8454-1" in="SourceGraphic" result="result8" stdDeviation="5"></feGaussianBlur>
      <feComposite id="feComposite8456-5" operator="xor" in2="result8"></feComposite>
      <feComposite k4="0" k3="0" k1="0" id="feComposite8458-4" in2="result8" result="result17" operator="arithmetic" k2="1"></feComposite>
      <feOffset id="feOffset8460-5" in="result17" result="result18"></feOffset>
      <feDisplacementMap id="feDisplacementMap8462-5" result="result4" scale="100" yChannelSelector="A" xChannelSelector="A" in="result18" in2="result17"></feDisplacementMap>
      <feComposite k4="0" k2="0" id="feComposite8464-5" k3="1" k1="1" in="result4" operator="arithmetic" result="fbSourceGraphic" in2="result4"></feComposite>
      <feComposite id="feComposite8466-4" operator="over" result="result9" in2="fbSourceGraphic"></feComposite>
      <feComposite id="feComposite8468-9" result="result15" operator="in" in2="SourceGraphic"></feComposite>
      <feComposite id="feComposite8470-7" in="result15" operator="in" in2="SourceGraphic" result="result16"></feComposite>
    </filter>
    
    <radialGradient gradientUnits="userSpaceOnUse" gradientTransform="matrix(0.45754069,0,2.1178e-8,4.8921657,30.955764,-681.07433)" r="2.3122809" fy="168.97437" fx="56.502651" cy="168.97437" cx="56.502651" id="radialGradient5784" xlink:href="#linearGradient5776"></radialGradient>
    <radialGradient gradientUnits="userSpaceOnUse" gradientTransform="matrix(0.42232028,0,0,4.5155782,216.23657,-584.49349)" r="2.3122809" fy="168.97437" fx="56.502651" cy="168.97437" cx="56.502651" id="radialGradient5784-1" xlink:href="#linearGradient5776"></radialGradient>
  </defs>
  <g style="display:inline" id="layer2">
    <path id="path870" d="m 136.30283,40.462252 c -3.96462,4.379437 -8.27341,14.822777 -21.02754,29.56135 -12.75413,14.738572 -33.952965,33.772038 -46.707111,52.469468 -12.754146,18.69743 -17.062845,37.05713 -16.890187,51.71179 0.172657,14.65467 4.826051,25.6031 12.754593,33.68809 7.928541,8.08499 19.131186,13.30657 28.007351,17.34917 8.876164,4.0426 15.425384,6.90604 25.852744,8.59027 10.42736,1.68423 24.73228,2.18954 33.2635,1.85255 8.53122,-0.33698 11.28879,-1.51604 17.06291,-1.17897 5.77411,0.33708 14.56387,2.18989 27.74877,0.6737 13.18491,-1.51619 30.76439,-6.40088 43.25964,-15.41241 12.49524,-9.01153 19.90622,-22.14968 23.78418,-30.99266 3.87796,-8.84298 4.22265,-13.39078 3.01628,-21.81287 -1.20636,-8.42209 -3.96392,-20.71803 -10.16842,-32.17217 -6.2045,-11.45414 -15.85601,-22.06571 -28.17926,-34.10941 C 215.75702,88.636444 200.76274,75.161434 186.88836,64.717915 173.01398,54.274397 160.26021,46.86314 152.07349,42.315166 143.88676,37.767192 140.26745,36.082815 136.30283,40.462252 Z" style="fill:url(#linearGradient39823);fill-opacity:1;stroke:#ff2a6d;stroke-width:1.59265;stroke-linecap:butt;stroke-linejoin:miter;stroke-miterlimit:4;stroke-dasharray:none;stroke-opacity:1"></path>
    <path id="path987" d="m 112.55605,99.309467 c -1.88757,3.011603 -2.87492,6.513793 -3.36496,10.034093 -0.49004,3.52031 -0.50469,7.08671 -0.58339,10.64009 -0.13437,6.0672 -0.45531,12.17756 0.48773,18.17252 0.94303,5.99497 3.28131,11.97129 7.69865,16.13254 3.27879,3.08871 7.67865,5.046 12.183,5.08378 4.50435,0.0378 9.05229,-1.93467 11.86132,-5.45603 2.76677,-3.46838 3.68589,-8.03691 4.18801,-12.44515 1.10825,-9.72961 0.60359,-19.58327 -0.5849,-29.30341 -0.4217,-3.4489 -0.93639,-6.91653 -2.13061,-10.17943 -1.19422,-3.262905 -3.12198,-6.339784 -5.92575,-8.391993 -3.38134,-2.474956 -7.85234,-3.260085 -11.96786,-2.47181 -4.85333,0.929594 -9.23691,3.997696 -11.86124,8.1848 z" style="fill:url(#linearGradient2701);fill-opacity:1;stroke:#000000;stroke-width:0.795036px;stroke-linecap:butt;stroke-linejoin:miter;stroke-opacity:1"></path>
    <path id="path987-3" d="m 190.76774,91.017187 c -4.70092,0.7462 -8.94249,3.69593 -11.55038,7.67768 -1.918,2.928423 -2.98392,6.344863 -3.58182,9.794053 -0.5979,3.44919 -0.74867,6.95754 -0.97359,10.45093 -0.38308,5.94989 -0.98414,11.92988 -0.35295,17.85858 0.63118,5.92871 2.61889,11.91136 6.74329,16.21685 1.97667,2.06346 4.41198,3.69562 7.09613,4.67565 2.68415,0.98002 5.61512,1.3004 8.43783,0.85613 2.82272,-0.44426 5.52918,-1.65969 7.69304,-3.52592 2.16386,-1.86623 3.77152,-4.38359 4.48997,-7.14926 0.59253,-2.28092 0.58333,-4.66878 0.57955,-7.02541 -0.0152,-9.48142 0.11754,-18.97196 -0.46136,-28.4357 -0.20777,-3.39648 -0.51276,-6.81751 -1.50651,-10.072 -0.99374,-3.254497 -2.73013,-6.363372 -5.38355,-8.493783 -3.09903,-2.488188 -7.3045,-3.45086 -11.22965,-2.8278 z" style="fill:url(#linearGradient3843);fill-opacity:1;stroke:#000000;stroke-width:0.768374px;stroke-linecap:butt;stroke-linejoin:miter;stroke-opacity:1"></path>
    <path id="path1132" d="m 122.24854,90.981827 c 0.73949,0.0582 2.72646,0.374832 4.5766,0.33296 1.1694,-0.02647 2.60616,-0.144142 4.08032,-0.374733 1.30594,-0.204277 2.6416,-0.496765 3.90777,-0.902424 0.97619,-0.312754 1.8878,-0.685132 2.71754,-1.124733 0.2273,-0.120425 0.45606,-0.251156 0.6838,-0.3926 0.96879,-0.601694 1.8376,-1.346841 2.60517,-2.220169 0.74234,-0.844615 1.33631,-1.7475 1.82591,-2.639776 0.70696,-1.288402 1.21602,-2.602346 1.51955,-3.425358 0.36558,-0.991283 0.64391,-2.042651 0.7465,-2.379227 -0.23267,0.343972 -0.79665,1.124915 -1.40812,2.043613 -0.48579,0.729867 -1.24845,1.84735 -2.13399,2.889842 -0.61332,0.722016 -1.27615,1.400817 -2.01941,2.017379 -0.76462,0.634293 -1.54627,1.146544 -2.36972,1.582973 -0.19394,0.102789 -0.38856,0.200575 -0.58242,0.29415 -0.70996,0.342709 -1.49732,0.655099 -2.37206,0.948027 -1.14088,0.382057 -2.34617,0.703129 -3.5782,1.003302 -1.38472,0.337372 -2.74009,0.634283 -3.86259,0.921543 -1.78453,0.456682 -3.60506,1.191695 -4.33665,1.425231 z" style="fill:#000000;fill-rule:nonzero;stroke:none;stroke-width:0.741877px;stroke-linecap:butt;stroke-linejoin:miter;stroke-opacity:1"></path>
    <path id="path1136" d="m 186.86098,92.200117 c 0.55261,-0.01817 2.02022,0.0744 3.41905,-0.129885 0.8903,-0.13002 2.02215,-0.367007 3.18281,-0.701778 0.97919,-0.282427 1.97736,-0.633635 2.91644,-1.061881 0.94541,-0.431136 1.79006,-0.921498 2.5111,-1.475492 0,-5e-6 0.0154,-0.01189 0.0155,-0.0119 1.44626,-1.115773 2.41246,-2.578726 3.07426,-4.105847 0.44951,-1.037256 0.74058,-2.064806 0.91614,-2.723135 0.20779,-0.779224 0.32672,-1.58721 0.38029,-1.860486 -0.17509,0.262847 -0.61301,0.864148 -1.05966,1.562429 -0.36625,0.572582 -0.92549,1.421454 -1.57055,2.232044 -0.9729,1.222557 -1.94504,2.126743 -3.15866,2.972889 1e-5,-5e-6 -0.0128,0.0089 -0.0128,0.0089 -0.60271,0.419153 -1.29834,0.828748 -2.12759,1.249049 -0.82709,0.41921 -1.69826,0.804442 -2.59826,1.183703 -1.05897,0.44625 -2.09161,0.857591 -2.90569,1.22155 -1.28334,0.57375 -2.47896,1.36812 -2.98233,1.639821 z" style="fill:#000000;fill-rule:nonzero;stroke:none;stroke-width:0.741877px;stroke-linecap:butt;stroke-linejoin:miter;stroke-opacity:1"></path>
    <path id="path1140" d="m 158.0501,185.48959 c -1.02265,-2.45796 -1.29034,-5.22408 -0.75799,-7.83252 0.51989,-2.54741 1.803,-4.93867 3.66108,-6.75722 1.85808,-1.81856 4.28631,-3.05289 6.85567,-3.45036 2.56936,-0.39746 5.26718,0.0492 7.55622,1.28206 2.28904,1.23284 4.15249,3.24922 5.1719,5.64095 0.81256,1.90643 1.08927,4.03792 0.79042,6.08863 -0.29886,2.05071 -1.1724,4.01458 -2.49527,5.6098 -1.32287,1.59522 -3.09116,2.81709 -5.05115,3.49028 -1.95999,0.67318 -4.10587,0.79569 -6.12974,0.34995 2.0479,-0.62169 4.35283,-0.33945 6.19022,0.75799 1.78164,1.06414 3.09414,2.86498 3.62293,4.87173 0.52879,2.00675 0.28252,4.19664 -0.62164,6.06457 -0.90416,1.86793 -2.44964,3.40697 -4.29245,4.36128 -1.84281,0.95431 -3.97075,1.32859 -6.03603,1.12543 -2.24159,-0.2205 -4.41199,-1.11923 -6.15327,-2.54797 -1.74127,-1.42874 -3.04654,-3.38185 -3.70054,-5.53722" style="fill:none;stroke:#ff1a4d;stroke-width:1.30384;stroke-linecap:butt;stroke-linejoin:miter;stroke-miterlimit:4;stroke-dasharray:none;stroke-opacity:1"></path>
    <ellipse cx="133.18581" cy="131.99524" rx="14.060346" ry="26.615362" id="path3862" style="fill:#000000;fill-rule:evenodd;stroke-width:0.818535;stroke-opacity:0.980237;paint-order:markers fill stroke;stop-color:#000000"></ellipse>
    <ellipse cx="197.7812" cy="131.92532" rx="13.533941" ry="26.352158" id="path3862-0" style="fill:#000000;fill-opacity:1;fill-rule:evenodd;stroke-width:0.799086;stroke-opacity:0.980237;paint-order:markers fill stroke;stop-color:#000000"></ellipse>
    <path id="path18732" d="m 140.91246,37.220602 c 1.33278,1.450953 4.82383,5.327172 7.84434,8.989939 0.21631,0.262299 0.43578,0.531173 0.658,0.806567 2.58949,3.209021 5.52767,7.262723 8.63161,12.710427 1.46016,2.562715 2.93346,5.389684 4.38817,8.30189 7.9e-4,0.0016 0.19417,0.38943 0.19496,0.391009 1.3639,2.740439 2.70665,5.514929 4.05196,8.346918 1.35648,2.855496 2.60346,5.533016 3.74322,7.984872 1.13909,2.450417 2.08523,4.489925 2.83529,6.057601 0.67738,1.41576 1.16095,2.374891 1.49675,3.024743 0.0464,0.08982 0.091,0.17511 0.13365,0.255761 0.17077,0.322676 0.30698,0.562487 0.41226,0.724704 0.0505,0.07782 0.0931,0.136634 0.13043,0.180855 0.0186,0.02208 0.0356,0.04027 0.0536,0.05798 0.009,0.0085 0.0188,0.01816 0.0297,0.02818 0.005,0.0049 0.0124,0.01129 0.0197,0.01767 0.007,0.0061 0.0176,0.01515 0.0298,0.02428 0.0111,0.0083 0.032,0.0233 0.0594,0.03591 0.0144,0.0066 0.0339,0.01417 0.0575,0.01921 0.0239,0.0051 0.0538,0.008 0.0874,0.0037 0.0345,-0.0045 0.0684,-0.01607 0.0991,-0.03498 0.0302,-0.0186 0.0525,-0.04122 0.0683,-0.06257 0.0155,-0.02096 0.0251,-0.04107 0.0311,-0.05697 0.006,-0.01602 0.009,-0.03024 0.0113,-0.04136 0.004,-0.02171 0.003,-0.0392 0.002,-0.05031 -9.7e-4,-0.01182 -0.003,-0.02163 -0.005,-0.02917 -0.004,-0.01477 -0.009,-0.02738 -0.0131,-0.037 -0.008,-0.01784 -0.0207,-0.0411 -0.0303,-0.05887 -0.0118,-0.02193 -0.0222,-0.04115 -0.0359,-0.06735 -0.0269,-0.05141 -0.0564,-0.109787 -0.0904,-0.179569 -0.035,-0.0718 -0.073,-0.151751 -0.11306,-0.237337 -0.0885,-0.189202 -0.1873,-0.406606 -0.27783,-0.606906 -0.1322,-0.292461 -0.23403,-0.519762 -0.31868,-0.703221 0.0478,0.183371 0.1206,0.45014 0.19837,0.745895 0.0556,0.211483 0.11517,0.444221 0.16042,0.645594 0.0205,0.09116 0.0384,0.177361 0.0519,0.253807 0.013,0.07317 0.0221,0.138058 0.0254,0.188767 0.002,0.02474 0.002,0.04635 4.1e-4,0.06309 -0.001,0.01609 -0.005,0.02918 -0.01,0.03166 -0.002,0.0012 -0.006,-5.8e-5 -0.009,-0.0077 -0.002,-0.0037 -0.003,-0.0097 -0.005,-0.01865 -9.9e-4,-0.0082 -0.002,-0.02288 0.001,-0.04262 0.002,-0.01009 0.005,-0.02336 0.0104,-0.03859 0.006,-0.01511 0.0149,-0.03453 0.03,-0.05493 0.0154,-0.02079 0.0372,-0.04298 0.0668,-0.06126 0.0302,-0.0186 0.0635,-0.03001 0.0974,-0.03441 0.033,-0.0043 0.0622,-0.0014 0.0854,0.0035 0.0228,0.0049 0.0415,0.01208 0.0551,0.01829 0.0255,0.01168 0.045,0.02541 0.0538,0.03181 0.011,0.0079 0.0177,0.01329 0.0229,0.01711 0.005,0.0038 0.009,0.0061 0.0116,0.0074 0.005,0.0025 0.008,0.0013 0.01,-0.0019 0.003,-0.0063 0.001,-0.02202 -0.002,-0.04181 -0.007,-0.03983 -0.0248,-0.105501 -0.049,-0.18754 -0.051,-0.172645 -0.13643,-0.433811 -0.25178,-0.773316 -0.029,-0.08546 -0.0599,-0.175636 -0.0925,-0.270475 -0.23625,-0.687041 -0.58019,-1.699085 -1.10097,-3.17741 -0.56822,-1.612954 -1.34801,-3.783015 -2.29902,-6.292092 -0.95148,-2.510336 -2.06178,-5.327043 -3.28783,-8.235263 -1.21444,-2.880682 -2.51353,-5.782534 -3.86319,-8.539968 -0.0649,-0.132604 -0.13002,-0.265128 -0.19534,-0.397551 -1.45641,-2.952524 -3.00193,-5.828891 -4.56935,-8.413735 -3.34717,-5.51986 -6.6648,-9.487813 -9.57063,-12.525135 -0.24952,-0.260806 -0.49588,-0.514572 -0.73859,-0.761379 -3.37059,-3.427498 -7.53835,-6.698541 -9.02243,-7.927764 z" style="fill:url(#linearGradient18840);fill-rule:nonzero;stroke:none;stroke-width:0.887471px;stroke-linecap:butt;stroke-linejoin:miter;stroke-opacity:1"></path>
  </g>
  <g style="display:inline" id="layer8">
    <path d="m 254.96896,114.31747 a 10.835634,9.5608532 80.489685 0 1 11.21979,9.107 10.835634,9.5608532 80.489685 0 1 -0.65803,6.359 l 3.58171,21.37985 c 0.116,0.69224 -0.3479,1.34282 -1.04014,1.45878 l -3.36808,0.56428 c -0.69225,0.116 -1.34314,-0.34785 -1.45912,-1.04009 l -2.84688,-16.99346 a 10.835634,9.5608532 80.489685 0 1 -1.84861,0.53806 10.835634,9.5608532 80.489685 0 1 -11.21979,-9.107 10.835634,9.5608532 80.489685 0 1 7.63915,-12.26639 z" style="fill:#000000;fill-opacity:0.878906;fill-rule:evenodd;stroke:none;stroke-width:0.514387;stroke-miterlimit:4;stroke-dasharray:none;stroke-opacity:1;paint-order:markers fill stroke;stop-color:#000000" id="path4653-9"></path>
    <path id="path4928" d="m 48.435412,152.16681 c 0.932755,17.02061 1.865493,34.04093 6.736917,45.90102 4.871423,11.86009 13.680899,18.55974 21.837098,24.46091 8.1562,5.90117 15.658625,11.00354 18.202043,17.10397 2.543419,6.10044 0.12811,13.1986 8.22764,21.4468 8.09952,8.2482 26.7128,17.64594 46.63735,19.24762 19.92455,1.60169 41.15928,-4.59239 58.77428,-14.11756 17.615,-9.52516 31.60946,-22.38082 43.2568,-30.93252 11.64734,-8.55169 20.9468,-12.79897 24.45497,-23.33737 3.50817,-10.5384 1.22499,-27.36752 -1.61142,-38.73092 -2.83641,-11.3634 -6.22603,-17.26056 -9.61589,-23.15815" style="fill:none;stroke:#000000;stroke-width:2.76896;stroke-linecap:butt;stroke-linejoin:miter;stroke-miterlimit:4;stroke-dasharray:none;stroke-opacity:1"></path>
    <path id="path5309-2" d="m 258.8676,116.42158 c -0.52439,-0.16709 -0.89487,-0.25764 -1.10168,-0.13888 -0.20681,0.11875 -0.24973,0.4467 0.18071,0.77015 0.43044,0.32345 1.33398,0.64242 2.03478,0.91863 0.7008,0.27621 1.19881,0.50961 1.29282,0.35326 0.094,-0.15636 -0.21587,-0.70253 -0.70992,-1.09749 -0.49404,-0.39496 -1.17233,-0.63858 -1.69671,-0.80567 z" style="display:inline;fill:#ffffff;fill-opacity:0.878906;stroke:#000000;stroke-width:0.167608px;stroke-linecap:butt;stroke-linejoin:miter;stroke-opacity:1"></path>
    <ellipse transform="matrix(0.72642522,-0.68724552,0.62868866,0.7776571,0,0)" ry="1.0018146" rx="0.37163463" cy="267.99197" cx="129.38431" id="path5533-2" style="display:inline;fill:#ffffff;fill-opacity:0.878906;fill-rule:evenodd;stroke:none;stroke-width:1.15977;stroke-miterlimit:4;stroke-dasharray:none;stroke-opacity:1;paint-order:markers fill stroke;stop-color:#000000"></ellipse>
    <rect transform="rotate(-8.0677829)" ry="1.2669616" rx="0.84464109" y="168.08209" x="239.12228" height="20.88257" width="1.9530462" id="rect5770-2" style="display:inline;fill:url(#radialGradient5784-1);fill-opacity:1;fill-rule:evenodd;stroke:none;stroke-width:1.43015;stroke-miterlimit:4;stroke-dasharray:none;stroke-opacity:1;paint-order:markers fill stroke;stop-color:#000000"></rect>
    <path d="m 55.373739,115.72263 a 10.358203,11.739296 2.0275846 0 0 -10.767088,11.36546 10.358203,11.739296 2.0275846 0 0 1.604017,6.73782 l -0.830937,23.47094 c -0.0269,0.75996 0.563159,1.39334 1.323116,1.42024 l 3.697508,0.13091 c 0.759956,0.0269 1.39369,-0.56316 1.420594,-1.32311 l 0.660459,-18.65554 a 10.358203,11.739296 2.0275846 0 0 2.061644,0.31715 10.358203,11.739296 2.0275846 0 0 10.767089,-11.36546 10.358203,11.739296 2.0275846 0 0 -9.936402,-12.09841 z" style="display:inline;opacity:1;fill:#000000;fill-opacity:0.878906;fill-rule:evenodd;stroke:none;stroke-width:0.557285;stroke-miterlimit:4;stroke-dasharray:none;stroke-opacity:1;paint-order:markers fill stroke;stop-color:#000000" id="path4653"></path>
    <path id="path5309" d="m 58.405576,117.37532 c -0.527596,-0.27782 -0.90556,-0.44474 -1.148705,-0.35736 -0.243145,0.0874 -0.351203,0.42902 0.04649,0.85578 0.397693,0.42675 1.300854,0.93856 1.995892,1.36626 0.695038,0.42769 1.181901,0.77121 1.31187,0.6223 0.129969,-0.14892 -0.09684,-0.79033 -0.548797,-1.30542 -0.451959,-0.5151 -1.129154,-0.90375 -1.656749,-1.18156 z" style="display:inline;fill:#ffffff;fill-opacity:0.878906;stroke:#000000;stroke-width:0.181586px;stroke-linecap:butt;stroke-linejoin:miter;stroke-opacity:1"></path>
    <ellipse transform="matrix(0.83564353,-0.54927215,0.48264162,0.87581794,0,0)" ry="1.0853633" rx="0.40262794" cy="135.67105" cx="-4.5629797" id="path5533" style="display:inline;opacity:1;fill:#ffffff;fill-opacity:0.878906;fill-rule:evenodd;stroke:none;stroke-width:1.25649;stroke-miterlimit:4;stroke-dasharray:none;stroke-opacity:1;paint-order:markers fill stroke;stop-color:#000000"></ellipse>
    <rect transform="rotate(2.0275846)" ry="1.3726228" rx="0.91508192" y="134.26411" x="55.750069" height="22.624123" width="2.1159251" id="rect5770" style="display:inline;opacity:1;fill:url(#radialGradient5784);fill-opacity:1;fill-rule:evenodd;stroke:none;stroke-width:1.54943;stroke-miterlimit:4;stroke-dasharray:none;stroke-opacity:1;paint-order:markers fill stroke;stop-color:#000000"></rect>
  </g>
  <g style="display:inline" id="layer3">
    <ellipse transform="matrix(2.8039478,0,0,2.8039478,-282.78621,-187.4034)" ry="8.3469067" rx="13.953988" cy="132.96338" cx="135.1183" id="path4354" style="fill:#ff84a9;fill-opacity:0.629503;fill-rule:evenodd;stroke-width:0.264999;stroke-opacity:0.980237;paint-order:markers fill stroke;filter:url(#filter15983);stop-color:#000000"></ellipse>
    <ellipse transform="matrix(2.2962127,0,0,2.5788741,-156.00067,-13.484389)" ry="8.3469067" rx="13.953988" cy="75.568176" cx="166.42839" id="path4354-8" style="fill:#ff84a9;fill-opacity:0.631373;fill-rule:evenodd;stroke-width:0.264999;stroke-opacity:0.980237;paint-order:markers fill stroke;filter:url(#filter16005);stop-color:#000000"></ellipse>
    <path d="m 230.99191,152.48224 -16.66039,10.46887 10e-4,0.0169 h -0.0253 v 19.03236 a 10.548619,10.320541 0 0 0 -4.73675,-1.0998 10.548619,10.320541 0 0 0 -10.54856,10.32111 10.548619,10.320541 0 0 0 10.54856,10.32108 10.548619,10.320541 0 0 0 10.5486,-10.32108 10.548619,10.320541 0 0 0 -0.014,-0.54338 h 0.14048 v -26.9525 l 11.22093,-7.05072 z" style="display:inline;fill:#000000;fill-rule:evenodd;stroke-width:0.670747;stroke-opacity:0.980237;paint-order:markers fill stroke;stop-color:#000000" id="path3709"></path>
    <ellipse ry="5.0532308" rx="3.9162543" cy="114.86506" cx="205.13763" id="path18529-4" style="display:inline;fill:#ffffff;fill-opacity:1;fill-rule:evenodd;stroke:none;stroke-width:0.743044;stroke-opacity:1;paint-order:markers fill stroke;stop-color:#000000"></ellipse>
    <ellipse ry="5.0532308" rx="3.9162543" cy="114.75901" cx="141.30115" id="path18529" style="fill:#ffffff;fill-opacity:1;fill-rule:evenodd;stroke:none;stroke-width:0.743044;stroke-opacity:1;paint-order:markers fill stroke;stop-color:#000000"></ellipse>
  </g>
  <g style="display:inline" id="layer4">
    <path id="path19052" d="m 154.88867,222.04624 c -4.19262,-5.66934 -13.59896,-10.7634 -23.11884,-13.31068 -9.51988,-2.54729 -19.15268,-2.54729 -23.00611,2.62959 -3.85342,5.17688 -1.92687,15.52905 -0.3403,26.62102 1.58658,11.09197 2.83317,22.92299 10.87963,23.41534 8.04646,0.49235 22.89231,-10.35282 30.8253,-18.89727 7.93299,-8.54446 8.95294,-14.78866 4.76032,-20.458 z" style="fill:#38efb1;fill-opacity:1;stroke:#379690;stroke-width:0.850003px;stroke-linecap:butt;stroke-linejoin:miter;stroke-opacity:1"></path>
    <path id="path19052-3" d="m 177.1811,226.75766 c 3.54592,-5.90199 12.06629,-12.36884 20.88267,-16.59659 8.81638,-4.22774 17.92836,-6.21581 21.957,-2.41194 4.02864,3.80386 2.97316,13.39839 2.29409,23.57996 -0.67906,10.18157 -0.98177,20.94954 -8.55675,23.04753 -7.57497,2.09798 -22.42157,-4.47293 -30.55856,-10.42654 -8.13699,-5.95361 -9.56436,-11.29044 -6.01845,-17.19242 z" style="fill:#40eeb2;fill-opacity:1;stroke:#309f8e;stroke-width:0.786267px;stroke-linecap:butt;stroke-linejoin:miter;stroke-opacity:1"></path>
    <circle cx="169.82904" cy="179.13049" r="11.128168" id="path20805" style="fill:url(#linearGradient20893);fill-opacity:1;fill-rule:evenodd;stroke:none;stroke-width:0.743044;stroke-opacity:1;paint-order:markers fill stroke;stop-color:#000000"></circle>
    <ellipse ry="10.649202" rx="9.9727001" transform="matrix(0.36924082,0.92933375,-0.94831273,0.3173373,0,0)" cy="-82.856209" cx="240.64299" id="path20805-0" style="fill:url(#linearGradient21568);fill-opacity:1;fill-rule:evenodd;stroke:none;stroke-width:0.688105;stroke-opacity:1;paint-order:markers fill stroke;stop-color:#000000"></ellipse>
    <rect ry="6.5425529" rx="8.4118509" y="220.94443" x="155.49686" height="25.965719" width="22.256325" id="rect21673" style="fill:#40eeb2;fill-opacity:1;fill-rule:evenodd;stroke:#043104;stroke-width:0.655302;stroke-opacity:1;paint-order:markers fill stroke;stop-color:#000000"></rect>
    <path id="path34432" d="m 151.78746,232.07261 c -6.00411,-3.09038 -12.00977,-6.18155 -16.78,-6.18182 -4.77024,-2.7e-4 -8.30295,3.0909 -9.7156,5.87387 -1.41264,2.78296 -0.70611,5.25585 1.23665,5.56398 1.94276,0.30814 5.12213,-1.54651 8.30203,-2.78309 3.17989,-1.23658 6.35931,-1.85482 9.53812,-2.47294" style="fill:none;stroke:#379690;stroke-width:1.40203px;stroke-linecap:butt;stroke-linejoin:miter;stroke-opacity:1"></path>
    <path id="path34432-6" d="m 181.46253,232.07261 c 6.00412,-3.09038 12.00977,-6.18155 16.78001,-6.18182 4.77023,-2.7e-4 8.30295,3.0909 9.71559,5.87386 1.41265,2.78297 0.70611,5.25585 -1.23664,5.56399 -1.94276,0.30815 -5.12214,-1.54651 -8.30204,-2.78309 -3.17989,-1.23658 -6.35931,-1.85482 -9.53812,-2.47294" style="fill:none;stroke:#379690;stroke-width:1.40203px;stroke-linecap:butt;stroke-linejoin:miter;stroke-opacity:1"></path>
    <path id="path2572" d="m 147.50814,216.33056 c -1.11293,-0.89017 -7.51789,-3.73883 -13.15068,-5.58607 -5.6328,-1.84724 -10.49321,-2.69293 -14.51345,-2.73749 -4.02023,-0.0446 -7.19994,0.71211 -9.17609,2.35914 -1.97614,1.64703 -2.74836,4.18407 -2.95267,5.89782 -0.20431,1.71375 0.15908,2.60393 0.95394,2.06964 0.79487,-0.53429 2.02132,-2.4927 4.86059,-3.89485 2.83927,-1.40214 7.29087,-2.24782 12.0152,-2.04745 4.72434,0.20038 9.72104,1.44665 14.30904,2.60393 4.58799,1.15728 8.76704,2.22551 7.65412,1.33533 z" style="mix-blend-mode:hard-light;fill:#f3ff7c;fill-opacity:1;stroke:none;stroke-width:0.300994px;stroke-linecap:butt;stroke-linejoin:miter;stroke-opacity:1;filter:url(#filter3373)"></path>
    <path transform="matrix(1.0038067,0,0,1.189696,-7.9516685,-43.108316)" id="path3426" d="m 164.84469,224.73975 c 0.44707,-0.64294 1.90042,-1.59321 4.05264,-2.06833 2.15222,-0.47511 5.00298,-0.47511 7.09921,-0.27942 2.09623,0.19569 3.43777,0.58698 4.55574,1.11808 1.11797,0.53111 2.01232,1.20188 2.34754,1.76081 0.33521,0.55893 0.11162,1.00611 -1.03413,0.81047 -1.14576,-0.19565 -3.21396,-1.03411 -5.39405,-1.36957 -2.1801,-0.33546 -4.47189,-0.16777 -6.3166,0.13966 -1.8447,0.30743 -3.24213,0.75461 -4.22029,0.81062 -0.97815,0.056 -1.53712,-0.27937 -1.09006,-0.92232 z" style="mix-blend-mode:hard-light;fill:#f3ff7c;fill-opacity:1;stroke:none;stroke-width:0.264583px;stroke-linecap:butt;stroke-linejoin:miter;stroke-opacity:1;filter:url(#filter3498)"></path>
    <path transform="matrix(1.0912625,0,0,0.9869963,-26.476294,3.6729315)" id="path3646" d="m 188.74109,223.84531 c 1.31364,-0.81055 5.22654,-3.99677 9.5867,-6.81968 4.36016,-2.8229 9.16733,-5.28238 9.92197,-6.0929 0.75463,-0.81052 -2.54331,0.0279 -6.26067,2.06827 -3.71737,2.04034 -7.85377,5.28238 -10.56489,7.68606 -2.71111,2.40368 -3.99675,3.9688 -2.68311,3.15825 z" style="mix-blend-mode:hard-light;fill:#f3ff7c;fill-opacity:1;stroke:none;stroke-width:0.264583px;stroke-linecap:butt;stroke-linejoin:miter;stroke-opacity:1;filter:url(#filter3718)"></path>
  </g>
  <g style="display:inline" id="layer6">
    <rect transform="matrix(0.33112032,-0.94358854,0.77763775,0.6287126,0,0)" ry="0.49761125" rx="0.250756" y="186.72629" x="64.573357" height="5.9246831" width="2.3221054" id="rect61899" style="fill:#ffffff;fill-opacity:1;fill-rule:evenodd;stroke:none;stroke-width:0.164257;stroke-miterlimit:4;stroke-dasharray:none;stroke-opacity:1;paint-order:markers fill stroke;stop-color:#000000"></rect>
    <path id="path62297" d="m 174.83218,60.947844 -1.39586,1.512165 13.86537,11.678538 z" style="fill:#ffffff;fill-opacity:1;stroke:none;stroke-width:0.741877px;stroke-linecap:butt;stroke-linejoin:miter;stroke-opacity:1"></path>
    <ellipse transform="scale(1,-1)" ry="23.329487" rx="12.9348" cy="-128.69698" cx="132.58472" id="path936" style="fill:url(#linearGradient1158);fill-opacity:1;fill-rule:evenodd;stroke-width:0.597238;stroke-opacity:0.980237;paint-order:markers fill stroke;stop-color:#000000"></ellipse>
    <ellipse transform="scale(1,-1)" ry="23.329487" rx="12.9348" cy="-130.99583" cx="196.88644" id="path936-6" style="display:inline;fill:url(#linearGradient1559);fill-opacity:1;fill-rule:evenodd;stroke-width:0.597238;stroke-opacity:0.980237;paint-order:markers fill stroke;stop-color:#000000"></ellipse>
    <ellipse ry="13.027856" rx="6.8861518" cy="133.4153" cx="139.19168" id="path1584" style="fill:#ff98d8;fill-opacity:1;fill-rule:evenodd;stroke-width:0.666404;stroke-opacity:0.980237;paint-order:markers fill stroke;stop-color:#000000"></ellipse>
    <ellipse ry="13.027856" rx="6.8861518" cy="134.34584" cx="203.40034" id="path1584-0" style="display:inline;fill:#ff98d8;fill-opacity:1;fill-rule:evenodd;stroke-width:0.666404;stroke-opacity:0.980237;paint-order:markers fill stroke;stop-color:#000000"></ellipse>
    <path id="path2111" d="m 116.57617,210.02168 c -1.23629,0.11706 -2.45949,0.50744 -3.0712,0.98913 -0.6117,0.48168 -0.6117,1.05422 0.13016,1.15811 0.74187,0.10389 2.22529,-0.26046 3.35745,-0.4426 1.13216,-0.18215 1.9129,-0.18215 2.40717,-0.40329 0.49428,-0.22114 0.70248,-0.66357 0.18219,-0.96291 -0.52029,-0.29934 -1.76948,-0.45549 -3.00577,-0.33844 z" style="fill:#ffffff;fill-opacity:1;stroke:none;stroke-width:0.348421px;stroke-linecap:butt;stroke-linejoin:miter;stroke-opacity:1"></path>
    <path id="path2111-4" d="m 214.79285,208.91342 c -1.17317,-0.40716 -2.44799,-0.56026 -3.20452,-0.37626 -0.75654,0.184 -0.99442,0.7048 -0.36277,1.10751 0.63165,0.40272 2.13234,0.68761 3.23784,0.9923 1.1055,0.30469 1.81568,0.62906 2.35715,0.63326 0.54147,0.004 0.91466,-0.31173 0.56577,-0.80018 -0.34889,-0.48844 -1.4203,-1.14948 -2.59347,-1.55663 z" style="display:inline;fill:#ffffff;fill-opacity:1;stroke:none;stroke-width:0.348421px;stroke-linecap:butt;stroke-linejoin:miter;stroke-opacity:1"></path>
    <path id="path2115" d="m 124.99662,210.7571 c -1.38023,-0.38559 -2.80805,-0.47125 -3.45083,-0.24258 -0.64277,0.22867 -0.5,0.77112 0.35697,1.04211 0.85696,0.27099 2.42753,0.27099 3.73641,0.38527 1.30887,0.11428 2.35592,0.34268 2.21311,0.11435 -0.14281,-0.22833 -1.47543,-0.91356 -2.85566,-1.29915 z" style="fill:#ffffff;fill-opacity:1;stroke:none;stroke-width:0.493513px;stroke-linecap:butt;stroke-linejoin:miter;stroke-opacity:1"></path>
    <path id="path3946" d="m 116.58903,258.76864 c 2.23588,-0.15306 6.26053,-0.98988 10.31579,-2.84003 4.05526,-1.85016 8.14104,-4.71352 12.8771,-8.66423 4.73607,-3.9507 10.12216,-8.98852 12.68177,-10.73128 2.55961,-1.74276 2.29269,-0.19065 -0.0102,2.71418 -2.3029,2.90483 -6.64147,7.16214 -10.96868,10.70888 -4.32721,3.54674 -8.64261,6.38257 -12.53398,8.30414 -3.89137,1.92157 -7.35826,2.92859 -9.86954,2.70945 -2.51128,-0.21915 -4.06689,-1.66468 -4.62111,-2.1219 -0.55421,-0.45722 -0.10701,0.0738 2.12887,-0.0792 z" style="opacity:0.746946;mix-blend-mode:normal;fill:#83a1d2;fill-opacity:0.722868;stroke:none;stroke-width:0.226236px;stroke-linecap:butt;stroke-linejoin:miter;stroke-opacity:1"></path>
    <path id="path6188" d="m 158.42126,241.97857 c 2.04043,0.0699 6.12101,0.20962 9.2792,-0.37736 3.15819,-0.58697 5.39409,-1.90056 6.95918,-3.53553 1.5651,-1.63497 2.45945,-3.59137 2.80883,-3.24192 0.34938,0.34946 0.15375,3.00458 -0.11179,4.89113 -0.26554,1.88654 -0.60092,3.0045 -1.38347,4.03853 -0.78255,1.03403 -2.01229,1.98428 -3.80095,2.54327 -1.78867,0.55899 -4.13636,0.72669 -6.05088,0.76862 -1.91453,0.0419 -3.3958,-0.0419 -4.96096,-0.67067 -1.56516,-0.62877 -3.21414,-1.80262 -4.02483,-2.64108 -0.81069,-0.83847 -0.78276,-1.34154 -0.76878,-1.5932 0.014,-0.25167 0.014,-0.25167 2.05445,-0.18179 z" style="opacity:0.525305;fill:#83a1d2;fill-opacity:0.722868;stroke:none;stroke-width:0.264583px;stroke-linecap:butt;stroke-linejoin:miter;stroke-opacity:1"></path>
    <path id="path6291" d="m 187.18345,244.37887 c 3.26092,0.37543 11.91715,2.86557 17.86574,2.94454 5.94858,0.079 9.18966,-2.25303 11.38333,-5.21743 2.19366,-2.9644 3.3399,-6.56121 4.07129,-8.20149 0.7314,-1.64028 1.0476,-1.32408 1.06722,0.63249 0.0196,1.95657 -0.25705,5.55338 -0.77092,8.51783 -0.51387,2.96445 -1.26485,5.29644 -2.39132,7.0948 -1.12647,1.79836 -2.62844,3.06317 -4.32797,3.6956 -1.69952,0.63243 -3.59673,0.63243 -5.96831,0.39529 -2.37158,-0.23713 -5.21741,-0.71144 -8.61669,-1.87743 -3.39929,-1.16599 -7.35182,-3.02368 -10.39537,-4.82209 -3.04356,-1.79842 -5.17793,-3.53754 -1.917,-3.16211 z" style="opacity:0.551483;fill:#83a1d2;fill-opacity:0.722868;stroke:none;stroke-width:0.264583px;stroke-linecap:butt;stroke-linejoin:miter;stroke-opacity:1"></path>
    <path id="path6507" d="m 152.55838,232.18495 c -3.02358,-1.245 -9.07097,-3.73511 -13.1888,-4.88796 -4.11783,-1.15285 -6.30565,-0.9682 -8.35777,-0.0714 -2.05212,0.89684 -3.96808,2.50578 -4.92952,4.0836 -0.96144,1.57783 -0.96824,3.12411 -0.7775,4.17298 0.19075,1.04888 0.5788,1.60023 2.69347,1.28384 2.11467,-0.31639 5.95583,-1.50017 8.90414,-2.42804 2.94832,-0.92788 5.00364,-1.59981 7.96821,-1.70846 2.96457,-0.10864 6.83804,0.34589 8.77467,0.57315 1.93664,0.22726 1.93669,0.22726 -1.0869,-1.01775 z" style="fill:#1f8565;fill-opacity:0.722868;stroke:none;stroke-width:0.264583px;stroke-linecap:butt;stroke-linejoin:miter;stroke-opacity:1"></path>
    <path id="path6507-6" d="m 180.82721,232.222 c 3.02358,-1.245 9.07097,-3.73511 13.1888,-4.88796 4.11783,-1.15285 6.30565,-0.9682 8.35777,-0.0714 2.05212,0.89684 3.96808,2.50578 4.92952,4.0836 0.96144,1.57783 0.96824,3.12411 0.7775,4.17298 -0.19075,1.04888 -0.5788,1.60023 -2.69347,1.28384 -2.11467,-0.31639 -5.95583,-1.50017 -8.90414,-2.42804 -2.94832,-0.92788 -5.00364,-1.59981 -7.96821,-1.70846 -2.96457,-0.10864 -6.83804,0.34589 -8.77467,0.57315 -1.93664,0.22726 -1.93669,0.22726 1.0869,-1.01775 z" style="display:inline;fill:#1f8565;fill-opacity:0.722868;stroke:none;stroke-width:0.264583px;stroke-linecap:butt;stroke-linejoin:miter;stroke-opacity:1"></path>
  </g>
</svg>
